<?xml version="1.0" encoding="utf-8"?>
<!-- Generator: Adobe Illustrator 24.0.1, SVG Export Plug-In . SVG Version: 6.00 Build 0)  -->
<svg version="1.1" id="Layer_1" xmlns="http://www.w3.org/2000/svg" xmlns:xlink="http://www.w3.org/1999/xlink" x="0px" y="0px"
	 viewBox="0 0 500 350" style="enable-background:new 0 0 500 350;" xml:space="preserve">
<style type="text/css">
	.st0{fill:#FFFFFF;}
</style>
<g>
	
		<rect x="36.3" y="116.5" transform="matrix(0.6893 -0.7245 0.7245 0.6893 -62.5088 186.1826)" class="st0" width="299" height="99"/>
	<path class="st0" d="M253,24.2l71,67.6L118.6,307.7l-71-67.6L253,24.2 M253,22.8L46.2,240.2l72.4,68.9L325.4,91.8L253,22.8
		L253,22.8z"/>
</g>
<g>
	<path class="st0" d="M365.5,309.8c-0.1,0-0.3,0-0.3-0.1L250.7,200.8c-0.1-0.1-0.1-0.2-0.2-0.4s0.1-0.3,0.1-0.4l88.2-92.7
		c0.1-0.1,0.2-0.2,0.4-0.2c0.1,0,0.3,0.1,0.3,0.1l114.5,108.9c0.2,0.2,0.2,0.5,0,0.7l-88.2,92.7
		C365.8,309.8,365.6,309.8,365.5,309.8z"/>
	<path class="st0" d="M339.3,107.7L339.3,107.7l114.5,108.9l-88.2,92.7L251,200.4L339.3,107.7L339.3,107.7 M339.3,106.7
		c-0.3,0-0.5,0.1-0.7,0.3l-88.2,92.7c-0.4,0.4-0.4,1,0,1.4L364.8,310c0.2,0.2,0.4,0.3,0.7,0.3c0.3,0,0.5-0.1,0.7-0.3l88.2-92.7
		c0.4-0.4,0.4-1,0-1.4L339.9,106.9C339.7,106.8,339.5,106.7,339.3,106.7L339.3,106.7z"/>
</g>
</svg>
