<?xml version="1.0" encoding="utf-8"?>
<!-- Generator: Adobe Illustrator 24.0.1, SVG Export Plug-In . SVG Version: 6.00 Build 0)  -->
<svg version="1.1" id="Layer_1" xmlns="http://www.w3.org/2000/svg" xmlns:xlink="http://www.w3.org/1999/xlink" x="0px" y="0px"
	 viewBox="0 0 500 350" style="enable-background:new 0 0 500 350;" xml:space="preserve">
<style type="text/css">
	.st0{fill:#0E1111;}
	.st1{fill:#FFFFFF;}
</style>
<g>
	
		<rect x="36.3" y="116.47" transform="matrix(0.6893 -0.7245 0.7245 0.6893 -62.5105 186.1762)" class="st0" width="299" height="99"/>
	<path class="st1" d="M253,24.24l71,67.55l-205.41,215.9l-71-67.55L253,24.24 M252.96,22.83L46.18,240.18l72.45,68.93L325.41,91.75
		L252.96,22.83L252.96,22.83z"/>
</g>
<g>
	<path class="st0" d="M365.49,309.82c-0.13,0-0.25-0.05-0.34-0.14L250.68,200.78c-0.1-0.09-0.15-0.22-0.16-0.35s0.05-0.26,0.14-0.36
		l88.23-92.74c0.1-0.1,0.22-0.16,0.36-0.16c0.13,0,0.25,0.05,0.34,0.14l114.47,108.91c0.2,0.19,0.21,0.51,0.02,0.71l-88.23,92.74
		C365.76,309.76,365.63,309.82,365.49,309.82z"/>
	<path class="st1" d="M339.25,107.68L339.25,107.68l114.47,108.91l-88.23,92.74L251.02,200.41L339.25,107.68
		C339.25,107.68,339.25,107.68,339.25,107.68 M339.25,106.68c-0.26,0-0.53,0.1-0.72,0.31l-88.23,92.74
		c-0.38,0.4-0.36,1.03,0.04,1.41L364.8,310.04c0.19,0.18,0.44,0.28,0.69,0.28c0.26,0,0.53-0.1,0.72-0.31l88.23-92.74
		c0.38-0.4,0.36-1.03-0.04-1.41L339.94,106.95C339.74,106.77,339.5,106.68,339.25,106.68L339.25,106.68z"/>
</g>
<g>
</g>
<g>
</g>
<g>
</g>
<g>
</g>
<g>
</g>
<g>
</g>
<g>
</g>
<g>
</g>
<g>
</g>
<g>
</g>
<g>
</g>
<g>
</g>
<g>
</g>
<g>
</g>
<g>
</g>
</svg>
