<?xml version="1.0" encoding="utf-8"?>
<!-- Generator: Adobe Illustrator 24.0.1, SVG Export Plug-In . SVG Version: 6.00 Build 0)  -->
<svg version="1.1" id="Layer_1" xmlns="http://www.w3.org/2000/svg" xmlns:xlink="http://www.w3.org/1999/xlink" x="0px" y="0px"
	 viewBox="0 0 500 350" style="enable-background:new 0 0 500 350;" xml:space="preserve">
<style type="text/css">
	.st0{fill:#0E1111;}
	.st1{fill:#FFFFFF;}
</style>
<g>
	<rect x="0.5" y="0.5" class="st0" width="499" height="349"/>
	<path class="st1" d="M499,1v348H1V1H499 M500,0H0v350h500V0L500,0z"/>
</g>
<g>
	
		<rect x="34.8" y="125.97" transform="matrix(0.6893 -0.7245 0.7245 0.6893 -70.0662 188.5592)" class="st1" width="300" height="100"/>
</g>
<g>
	<path class="st1" d="M363.8,320.04L249.33,211.14c-0.4-0.38-0.42-1.01-0.04-1.41l88.23-92.74c0.38-0.4,1.01-0.42,1.41-0.04
		l114.47,108.91c0.4,0.38,0.42,1.01,0.04,1.41l-88.23,92.74C364.83,320.41,364.2,320.42,363.8,320.04z"/>
</g>
<g>
</g>
<g>
</g>
<g>
</g>
<g>
</g>
<g>
</g>
<g>
</g>
<g>
</g>
<g>
</g>
<g>
</g>
<g>
</g>
<g>
</g>
<g>
</g>
<g>
</g>
<g>
</g>
<g>
</g>
</svg>
