<?xml version="1.0" encoding="utf-8"?>
<!-- Generator: Adobe Illustrator 24.0.1, SVG Export Plug-In . SVG Version: 6.00 Build 0)  -->
<svg version="1.1" id="Layer_1" xmlns="http://www.w3.org/2000/svg" xmlns:xlink="http://www.w3.org/1999/xlink" x="0px" y="0px"
	 viewBox="0 0 500 350" style="enable-background:new 0 0 500 350;" xml:space="preserve">
<style type="text/css">
	.st0{fill:#0E1111;}
	.st1{fill:#FFFFFF;}
</style>
<g>
	<path class="st0" d="M0.5,349.5V0.5h499v349H0.5z M338.25,116.18c-0.41,0-0.8,0.17-1.09,0.47l-88.23,92.74
		c-0.28,0.29-0.42,0.67-0.41,1.07c0.01,0.4,0.18,0.77,0.47,1.05l114.47,108.91c0.28,0.27,0.65,0.41,1.03,0.41
		c0.41,0,0.8-0.17,1.09-0.47l88.23-92.74c0.57-0.6,0.55-1.55-0.05-2.12L339.28,116.59C339,116.32,338.63,116.18,338.25,116.18z
		 M44.47,250.19l73.17,69.62l207.47-218.07l-73.17-69.62L44.47,250.19z"/>
	<path class="st1" d="M499,1v348H1V1H499 M117.66,320.52l0.69-0.72l206.78-217.35l0.69-0.72l-0.72-0.69L252.65,32.1l-0.72-0.69
		l-0.69,0.72L44.45,249.49l-0.69,0.72l0.72,0.69l72.45,68.93L117.66,320.52 M364.49,321.32c0.55,0,1.07-0.23,1.45-0.62l88.23-92.74
		c0.76-0.8,0.73-2.07-0.07-2.83L339.63,116.23c-0.37-0.36-0.86-0.55-1.38-0.55c-0.55,0-1.07,0.23-1.45,0.62l-88.23,92.74
		c-0.37,0.39-0.56,0.89-0.55,1.43c0.01,0.53,0.23,1.03,0.62,1.4l114.47,108.91C363.49,321.12,363.98,321.32,364.49,321.32 M500,0H0
		v350h500V0L500,0z M117.63,319.1l-72.45-68.93L251.96,32.83l72.45,68.93L117.63,319.1L117.63,319.1z M364.49,320.32
		c-0.25,0-0.5-0.09-0.69-0.28L249.33,211.14c-0.4-0.38-0.42-1.01-0.04-1.41l88.23-92.74c0.2-0.21,0.46-0.31,0.72-0.31
		c0.25,0,0.5,0.09,0.69,0.28l114.47,108.91c0.4,0.38,0.42,1.01,0.04,1.41l-88.23,92.74C365.02,320.22,364.75,320.32,364.49,320.32
		L364.49,320.32z"/>
</g>
<g>
</g>
<g>
</g>
<g>
</g>
<g>
</g>
<g>
</g>
<g>
</g>
<g>
</g>
<g>
</g>
<g>
</g>
<g>
</g>
<g>
</g>
<g>
</g>
<g>
</g>
<g>
</g>
<g>
</g>
</svg>
