<svg xmlns="http://www.w3.org/2000/svg" height="800" width="1200" xml:space="preserve" y="0" x="0" id="CARD" version="1.1" viewBox="-36 -10.5 312 63"><style id="style4428" type="text/css">.st0{fill:#6428b4}</style><g transform="translate(0 -10.1)" id="LOGO_7_"><g id="LOGO_8_"><path id="path4430" d="M228 17.5V16h-19.5c-2.5 0-4.5 2-4.5 4.5v21c0 2.5 2 4.5 4.5 4.5h15c2.5 0 4.5-2 4.5-4.5V40h-17.2c-.4 0-.8-.4-.8-.8V34h13.5c2.5 0 4.5-2 4.5-4.5V28h-18v-5.2c0-.4.4-.8.8-.8h12.7c2.5 0 4.5-2 4.5-4.5z" class="st0"/><path id="path4432" d="M198 26.4c-.1-5.8-5-10.4-10.8-10.4h-14.7c-2.5 0-4.5 2-4.5 4.5V46h1.5c2.5 0 4.5-2 4.5-4.5V37h11.9l4.3 7.5c.5.9 1.5 1.5 2.6 1.5h5.2l-5.8-10.1c3.5-1.7 5.9-5.4 5.8-9.5zM174.9 22h12.5c2.4 0 4.4 1.9 4.6 4.3.1 2.6-1.9 4.7-4.5 4.7H174v-8.1c0-.5.4-.9.9-.9z" class="st0"/><path id="path4434" d="M76.8 17.2L66.6 27.4c-.4.4-.9.4-1.3 0L55.2 17.2c-.8-.8-1.9-1.2-3-1.2-2.3 0-4.2 1.9-4.2 4.2V46h1.5c2.5 0 4.5-2 4.5-4.5V25.4c0-.4.4-.5.7-.3l8.1 8.1c1.8 1.8 4.6 1.8 6.4 0l8.1-8.1c.3-.3.7-.1.7.3V46h1.5c2.5 0 4.5-2 4.5-4.5V20.2c0-2.3-1.9-4.2-4.2-4.2h-.1c-1.1 0-2.1.4-2.9 1.2z" class="st0"/><path id="path4436" d="M37.5 46H36V20.5c0-2.5 2-4.5 4.5-4.5H42v25.5c0 2.5-2 4.5-4.5 4.5z" class="st0"/><path id="path4438" d="M19.2 16H4.5C2 16 0 18 0 20.5V46h1.5C4 46 6 44 6 41.5V37h13.5c5.7 0 10.4-4.6 10.5-10.3.1-5.9-4.9-10.7-10.8-10.7zm.2 15H6v-8.1c0-.5.4-.9.9-.9h12.6c2.6 0 4.6 2.1 4.5 4.7-.1 2.4-2.2 4.3-4.6 4.3z" class="st0"/></g><path id="path4441" d="M147 16c-5.2 0-9.8 2.7-12.5 6.7l-11 16.6c-2.7 4-7.3 6.7-12.5 6.7-8.3 0-15-6.7-15-15s6.7-15 15-15c5.2 0 9.7 2.6 12.4 6.6l2 3 3.6-5.4-.5-.8c-3.8-5.6-10.2-9.3-17.5-9.3-11.6 0-21 9.4-21 21s9.4 21 21 21c7.3 0 13.8-3.7 17.5-9.4l4.1-6.2 1.9 2.9c2.7 4 7.3 6.7 12.5 6.7 8.3 0 15-6.7 15-15S155.3 16 147 16zm0 24c-3.1 0-5.9-1.6-7.5-4.1l-3.3-4.9 3.3-5c1.6-2.4 4.4-4 7.5-4 5 0 9 4 9 9s-4 9-9 9z" class="st0"/></g><g transform="translate(0 -10.1)" id="_x28_R_x29__9_"><path id="path4444" d="M238.4 18.5c0-.5-.5-1-1-1H236c-.2 0-.4.2-.4.4v2.5h.3c.2 0 .3-.1.3-.3v-.6h1.1l.5.8h.7l-.6-1c.3 0 .5-.4.5-.8zm-2.2-.4h1.2c.2 0 .4.2.4.4 0 .3-.2.5-.4.5h-1.3v-.8l.1-.1z" class="st0"/><path id="path4446" d="M237 16.6c1.3 0 2.4 1.1 2.4 2.4 0 1.3-1.1 2.4-2.4 2.4-1.3 0-2.4-1.1-2.4-2.4 0-1.3 1.1-2.4 2.4-2.4m0-.6c-1.7 0-3 1.3-3 3s1.3 3 3 3 3-1.3 3-3-1.3-3-3-3z" class="st0"/></g></svg>