<?xml version="1.0" standalone="no"?>
<!DOCTYPE svg PUBLIC "-//W3C//DTD SVG 20010904//EN"
 "http://www.w3.org/TR/2001/REC-SVG-20010904/DTD/svg10.dtd">
<svg version="1.0" xmlns="http://www.w3.org/2000/svg"
 width="500.000000pt" height="500.000000pt" viewBox="0 0 500.000000 500.000000"
 preserveAspectRatio="xMidYMid meet">
<metadata>
Created by potrace 1.11, written by Peter Selinger 2001-2013
</metadata>
<g transform="translate(0.000000,500.000000) scale(0.100000,-0.100000)"
fill="#000000" stroke="none">
<path d="M2442 3928 c-50 -51 -114 -118 -142 -148 -29 -30 -125 -131 -214
-224 -88 -93 -174 -183 -191 -201 -45 -48 -191 -201 -372 -391 -88 -93 -178
-187 -199 -209 -20 -22 -112 -119 -204 -215 -92 -96 -182 -191 -200 -210 -18
-19 -108 -114 -200 -210 -92 -96 -187 -197 -212 -224 l-45 -48 90 -87 c50 -47
105 -99 122 -116 29 -27 240 -228 435 -414 l75 -71 85 88 c121 125 422 441
460 482 18 19 103 109 190 200 86 91 172 181 190 200 18 19 101 106 184 193
83 87 174 182 201 211 28 29 124 131 215 226 91 95 179 187 195 205 17 17 100
104 185 194 85 89 156 166 158 170 1 4 -37 45 -85 91 -48 46 -169 160 -268
254 -98 94 -191 182 -206 196 -14 14 -55 54 -91 88 l-65 64 -91 -94z"/>
<path d="M3250 3038 c-74 -78 -146 -153 -160 -168 -14 -15 -95 -101 -182 -191
-86 -90 -179 -189 -208 -219 -28 -30 -86 -90 -128 -134 l-76 -79 95 -91 c133
-126 454 -433 568 -541 52 -49 142 -136 200 -192 58 -56 117 -111 131 -123 14
-12 55 -50 91 -86 37 -35 71 -64 75 -64 5 0 28 21 53 48 24 26 114 121 200
211 86 91 167 176 181 191 14 14 97 102 185 194 88 92 186 195 218 229 l57 62
-68 65 c-37 36 -151 144 -252 240 -101 96 -231 220 -289 276 -58 55 -125 118
-147 140 -23 21 -110 104 -194 184 -199 189 -200 190 -208 190 -4 0 -68 -64
-142 -142z"/>
</g>
</svg>
